<svg width="48" height="25" viewBox="0 0 48 25" fill="none" xmlns="http://www.w3.org/2000/svg">
<path d="M9.64763 14.896H4.73563L3.58363 18H2.36763L6.67163 6.8H7.21563C7.56763 6.8 7.82363 7.01333 7.98363 7.44L10.4476 13.904H10.4636V13.936L12.0156 18H10.7996L9.64763 14.896ZM5.10363 13.904H9.27963L7.19963 8.336H7.18363L5.10363 13.904ZM16.743 18.128C16.391 18.128 16.0177 18.0213 15.623 17.808C15.2283 17.584 14.9243 17.3067 14.711 16.976V18H13.591V6.8H14.743V10.96C14.9777 10.6293 15.2763 10.368 15.639 10.176C16.0123 9.984 16.3963 9.888 16.791 9.888H17.927C18.471 9.888 18.951 10.016 19.367 10.272C19.7937 10.5173 20.1243 10.8693 20.359 11.328C20.6043 11.776 20.727 12.2933 20.727 12.88V14.944C20.727 15.5733 20.6043 16.128 20.359 16.608C20.1243 17.088 19.7883 17.4613 19.351 17.728C18.9243 17.9947 18.4283 18.128 17.863 18.128H16.743ZM17.831 17.104C18.343 17.104 18.759 16.9067 19.079 16.512C19.4097 16.1067 19.575 15.584 19.575 14.944V12.88C19.575 12.2933 19.415 11.8187 19.095 11.456C18.7857 11.0933 18.3857 10.912 17.895 10.912H16.823C16.2683 10.912 15.7937 11.1147 15.399 11.52C15.0043 11.9253 14.7857 12.4587 14.743 13.12V15.072C14.7643 15.4453 14.871 15.7867 15.063 16.096C15.255 16.4053 15.5003 16.6507 15.799 16.832C16.0977 17.0133 16.4123 17.104 16.743 17.104H17.831ZM25.497 18.128C24.601 18.128 23.881 17.8507 23.337 17.296C22.793 16.7413 22.521 16.0107 22.521 15.104V12.912C22.521 12.0053 22.793 11.2747 23.337 10.72C23.8917 10.1653 24.6223 9.888 25.529 9.888H26.841C27.7477 9.888 28.473 10.1653 29.017 10.72C29.5717 11.2747 29.849 12.0053 29.849 12.912V15.104C29.849 16.0107 29.5717 16.7413 29.017 17.296C28.4623 17.8507 27.7263 18.128 26.809 18.128H25.497ZM26.809 17.104C27.385 17.104 27.8437 16.9227 28.185 16.56C28.5263 16.1867 28.697 15.7013 28.697 15.104V12.912C28.697 12.3147 28.5263 11.8347 28.185 11.472C27.8437 11.0987 27.3957 10.912 26.841 10.912H25.529C24.9743 10.912 24.5263 11.0987 24.185 11.472C23.8437 11.8347 23.673 12.3147 23.673 12.912V15.104C23.673 15.712 23.8383 16.1973 24.169 16.56C24.4997 16.9227 24.9423 17.104 25.497 17.104H26.809ZM34.35 18.128C33.614 18.128 33.0167 17.8773 32.558 17.376C32.0993 16.8747 31.87 16.2187 31.87 15.408V10.016H33.022V15.44C33.022 15.9413 33.1447 16.3467 33.39 16.656C33.6353 16.9547 33.9553 17.104 34.35 17.104H35.342C35.8327 17.104 36.286 16.9067 36.702 16.512C37.118 16.1173 37.3847 15.6213 37.502 15.024V10.016H38.654V18H37.534V16.784C37.2887 17.168 36.9633 17.488 36.558 17.744C36.1527 18 35.758 18.128 35.374 18.128H34.35ZM44.227 18C43.3843 18 42.7763 17.8187 42.403 17.456C42.0403 17.0933 41.859 16.496 41.859 15.664V11.04H40.451V10.016H41.859V7.6H43.011V10.016H45.091V11.04H43.011V15.664C43.011 16.1333 43.1017 16.4693 43.283 16.672C43.475 16.8747 43.7897 16.976 44.227 16.976H45.091V18H44.227Z" fill="#161513"/>
<path d="M0 24H48V25H0V24Z" fill="#131416"/>
</svg>
