<svg width="64" height="25" viewBox="0 0 64 25" fill="none" xmlns="http://www.w3.org/2000/svg">
<path d="M0 24H64V25H0V24Z" fill="#131416"/>
<path d="M7.45138 18.128C6.73671 18.128 6.10204 17.9573 5.54738 17.616C5.00338 17.2747 4.57671 16.8 4.26738 16.192C3.96871 15.5733 3.81938 14.864 3.81938 14.064V10.736C3.81938 9.936 3.96871 9.22667 4.26738 8.608C4.57671 7.98933 5.00871 7.51467 5.56338 7.184C6.12871 6.84267 6.77938 6.672 7.51538 6.672H9.21138C9.90471 6.672 10.5127 6.82133 11.0354 7.12C11.5687 7.41867 11.9794 7.84 12.2674 8.384C12.566 8.928 12.7154 9.552 12.7154 10.256H11.5634C11.5634 9.49867 11.3447 8.89067 10.9074 8.432C10.4807 7.96267 9.91538 7.728 9.21138 7.728H7.51538C6.75804 7.728 6.15004 8.00533 5.69138 8.56C5.23271 9.104 5.00338 9.82933 5.00338 10.736V14.064C5.00338 14.9707 5.22738 15.7013 5.67538 16.256C6.12338 16.8 6.71538 17.072 7.45138 17.072H9.17938C9.90471 17.072 10.486 16.816 10.9234 16.304C11.3714 15.792 11.5954 15.12 11.5954 14.288H12.7474C12.7474 15.0453 12.598 15.7173 12.2994 16.304C12.0007 16.88 11.5794 17.328 11.0354 17.648C10.502 17.968 9.88338 18.128 9.17938 18.128H7.45138ZM17.2939 18.128C16.3979 18.128 15.6779 17.8507 15.1339 17.296C14.5899 16.7413 14.3179 16.0107 14.3179 15.104V12.912C14.3179 12.0053 14.5899 11.2747 15.1339 10.72C15.6885 10.1653 16.4192 9.888 17.3259 9.888H18.6379C19.5445 9.888 20.2699 10.1653 20.8139 10.72C21.3685 11.2747 21.6459 12.0053 21.6459 12.912V15.104C21.6459 16.0107 21.3685 16.7413 20.8139 17.296C20.2592 17.8507 19.5232 18.128 18.6059 18.128H17.2939ZM18.6059 17.104C19.1819 17.104 19.6405 16.9227 19.9819 16.56C20.3232 16.1867 20.4939 15.7013 20.4939 15.104V12.912C20.4939 12.3147 20.3232 11.8347 19.9819 11.472C19.6405 11.0987 19.1925 10.912 18.6379 10.912H17.3259C16.7712 10.912 16.3232 11.0987 15.9819 11.472C15.6405 11.8347 15.4699 12.3147 15.4699 12.912V15.104C15.4699 15.712 15.6352 16.1973 15.9659 16.56C16.2965 16.9227 16.7392 17.104 17.2939 17.104H18.6059ZM23.7629 10.016H24.8829V11.2C25.1282 10.816 25.4482 10.5013 25.8429 10.256C26.2375 10.0107 26.6322 9.888 27.0269 9.888H28.1149C28.8509 9.888 29.4429 10.1387 29.8909 10.64C30.3495 11.1413 30.5789 11.7973 30.5789 12.608V18H29.4269V12.576C29.4269 12.0853 29.3042 11.6853 29.0589 11.376C28.8135 11.0667 28.4882 10.912 28.0829 10.912H27.0589C26.5575 10.912 26.0989 11.1093 25.6829 11.504C25.2775 11.8987 25.0215 12.4053 24.9149 13.024V18H23.7629V10.016ZM36.0551 18C35.2125 18 34.6045 17.8187 34.2311 17.456C33.8685 17.0933 33.6871 16.496 33.6871 15.664V11.04H32.2791V10.016H33.6871V7.6H34.8391V10.016H36.9191V11.04H34.8391V15.664C34.8391 16.1333 34.9298 16.4693 35.1111 16.672C35.3031 16.8747 35.6178 16.976 36.0551 16.976H36.9191V18H36.0551ZM41.145 18.128C40.3663 18.128 39.7423 17.9253 39.273 17.52C38.8143 17.1147 38.585 16.5707 38.585 15.888V15.376C38.585 14.704 38.825 14.1653 39.305 13.76C39.785 13.3547 40.4197 13.152 41.209 13.152H42.233C42.585 13.152 42.9477 13.2053 43.321 13.312C43.6943 13.4187 44.0143 13.5627 44.281 13.744V12.416C44.281 11.968 44.1423 11.6053 43.865 11.328C43.5877 11.04 43.2197 10.896 42.761 10.896H41.481C41.0223 10.896 40.6543 11.0027 40.377 11.216C40.0997 11.4293 39.961 11.712 39.961 12.064H38.809C38.809 11.4133 39.0543 10.8907 39.545 10.496C40.0357 10.0907 40.681 9.888 41.481 9.888H42.761C43.5503 9.888 44.185 10.1227 44.665 10.592C45.1557 11.0507 45.401 11.6587 45.401 12.416V18H44.313V16.88C44.0677 17.264 43.7423 17.568 43.337 17.792C42.9423 18.016 42.5317 18.128 42.105 18.128H41.145ZM42.137 17.12C42.6383 17.12 43.0863 16.9653 43.481 16.656C43.8757 16.3467 44.1423 15.936 44.281 15.424V14.832C44.0677 14.6293 43.769 14.4693 43.385 14.352C43.0117 14.224 42.6277 14.16 42.233 14.16H41.209C40.7717 14.16 40.4143 14.272 40.137 14.496C39.8703 14.72 39.737 15.0133 39.737 15.376V15.888C39.737 16.2613 39.865 16.56 40.121 16.784C40.377 17.008 40.7183 17.12 41.145 17.12H42.137ZM50.3236 18.128C49.449 18.128 48.745 17.8667 48.2116 17.344C47.6783 16.8107 47.4116 16.1067 47.4116 15.232V12.944C47.4116 12.0267 47.6783 11.2907 48.2116 10.736C48.745 10.1707 49.4436 9.888 50.3076 9.888H51.6196C52.441 9.888 53.1023 10.1173 53.6036 10.576C54.105 11.0347 54.3556 11.6373 54.3556 12.384H53.2356C53.2356 11.9467 53.0863 11.5947 52.7876 11.328C52.4996 11.0507 52.1103 10.912 51.6196 10.912H50.3076C49.785 10.912 49.3636 11.0987 49.0436 11.472C48.7236 11.8453 48.5636 12.336 48.5636 12.944V15.232C48.5636 15.7973 48.7236 16.2507 49.0436 16.592C49.3743 16.9333 49.801 17.104 50.3236 17.104H51.6356C52.137 17.104 52.537 16.928 52.8356 16.576C53.145 16.224 53.2996 15.7547 53.2996 15.168H54.4196C54.4196 16.0533 54.1636 16.768 53.6516 17.312C53.1396 17.856 52.4676 18.128 51.6356 18.128H50.3236ZM59.3833 18C58.5406 18 57.9326 17.8187 57.5593 17.456C57.1966 17.0933 57.0153 16.496 57.0153 15.664V11.04H55.6073V10.016H57.0153V7.6H58.1673V10.016H60.2473V11.04H58.1673V15.664C58.1673 16.1333 58.2579 16.4693 58.4393 16.672C58.6313 16.8747 58.9459 16.976 59.3833 16.976H60.2473V18H59.3833Z" fill="#161513"/>
</svg>
