<svg width="44" height="25" viewBox="0 0 44 25" fill="none" xmlns="http://www.w3.org/2000/svg">
<path d="M0 24H44V25H0V24Z" fill="#131416"/>
<path d="M2.06125 6.8H3.24525V11.824H9.42125V6.8H10.6053V18H9.42125V12.88H3.24525V18H2.06125V6.8ZM15.7626 18.128C14.8666 18.128 14.1466 17.8507 13.6026 17.296C13.0586 16.7413 12.7866 16.0107 12.7866 15.104V12.912C12.7866 12.0053 13.0586 11.2747 13.6026 10.72C14.1573 10.1653 14.888 9.888 15.7946 9.888H17.1066C18.0133 9.888 18.7386 10.1653 19.2826 10.72C19.8373 11.2747 20.1146 12.0053 20.1146 12.912V15.104C20.1146 16.0107 19.8373 16.7413 19.2826 17.296C18.728 17.8507 17.992 18.128 17.0746 18.128H15.7626ZM17.0746 17.104C17.6506 17.104 18.1093 16.9227 18.4506 16.56C18.792 16.1867 18.9626 15.7013 18.9626 15.104V12.912C18.9626 12.3147 18.792 11.8347 18.4506 11.472C18.1093 11.0987 17.6613 10.912 17.1066 10.912H15.7946C15.24 10.912 14.792 11.0987 14.4506 11.472C14.1093 11.8347 13.9386 12.3147 13.9386 12.912V15.104C13.9386 15.712 14.104 16.1973 14.4346 16.56C14.7653 16.9227 15.208 17.104 15.7626 17.104H17.0746ZM30.9836 9.888C31.6876 9.888 32.2423 10.1173 32.6476 10.576C33.0636 11.024 33.2716 11.648 33.2716 12.448V18H32.1196V12.416C32.1196 11.9467 32.013 11.5787 31.7996 11.312C31.5863 11.0453 31.3036 10.912 30.9516 10.912H30.0396C29.581 10.912 29.2023 11.0667 28.9036 11.376C28.605 11.6853 28.413 12.1227 28.3276 12.688V18H27.1756V12.512C27.1756 12.0107 27.0743 11.6213 26.8716 11.344C26.6796 11.056 26.413 10.912 26.0716 10.912H25.1596C24.7223 10.912 24.3383 11.104 24.0076 11.488C23.677 11.872 23.469 12.3733 23.3836 12.992V18H22.2316V10.016H23.3516V11.168C23.565 10.7627 23.8316 10.448 24.1516 10.224C24.4716 10 24.8076 9.888 25.1596 9.888H26.1036C26.5516 9.888 26.9356 10 27.2556 10.224C27.5863 10.4373 27.837 10.752 28.0076 11.168C28.253 10.7413 28.5463 10.4213 28.8876 10.208C29.229 9.99467 29.6023 9.888 30.0076 9.888H30.9836ZM38.2626 18.128C37.3666 18.128 36.6466 17.8667 36.1026 17.344C35.5586 16.8107 35.2866 16.1067 35.2866 15.232V12.944C35.2866 12.0267 35.5586 11.2907 36.1026 10.736C36.6466 10.1707 37.3666 9.888 38.2626 9.888H39.5746C40.428 9.888 41.116 10.16 41.6386 10.704C42.1613 11.248 42.4226 11.968 42.4226 12.864V14.272H36.4386V15.232C36.4386 15.7867 36.604 16.24 36.9346 16.592C37.276 16.9333 37.7186 17.104 38.2626 17.104H39.4786C40.012 17.104 40.444 16.96 40.7746 16.672C41.1053 16.3733 41.2706 15.9787 41.2706 15.488H42.3906C42.3906 16.2773 42.124 16.9173 41.5906 17.408C41.0573 17.888 40.3533 18.128 39.4786 18.128H38.2626ZM41.2706 13.28V12.864C41.2706 12.2773 41.116 11.808 40.8066 11.456C40.4973 11.0933 40.0866 10.912 39.5746 10.912H38.2626C37.7186 10.912 37.276 11.0987 36.9346 11.472C36.604 11.8453 36.4386 12.336 36.4386 12.944V13.28H41.2706Z" fill="#161513"/>
</svg>
